<?xml version="1.0" encoding="UTF-8" standalone="no"?>
<svg
   xmlns:dc="http://purl.org/dc/elements/1.1/"
   xmlns:cc="http://creativecommons.org/ns#"
   xmlns:rdf="http://www.w3.org/1999/02/22-rdf-syntax-ns#"
   xmlns:svg="http://www.w3.org/2000/svg"
   xmlns="http://www.w3.org/2000/svg"
   xmlns:sodipodi="http://sodipodi.sourceforge.net/DTD/sodipodi-0.dtd"
   xmlns:inkscape="http://www.inkscape.org/namespaces/inkscape"
   enable-background="new 0 0 70 70"
   id="Layer_1"
   version="1.1"
   viewBox="0 0 34.045334 31.515533"
   xml:space="preserve"
   inkscape:version="0.91 r13725"
   sodipodi:docname="bolsillo.svg"
   width="34.045334"
   height="31.515533"><metadata
     id="metadata41"><rdf:RDF><cc:Work
         rdf:about=""><dc:format>image/svg+xml</dc:format><dc:type
           rdf:resource="http://purl.org/dc/dcmitype/StillImage" /><dc:title /></cc:Work></rdf:RDF></metadata><defs
     id="defs39" /><sodipodi:namedview
     pagecolor="#ffffff"
     bordercolor="#666666"
     borderopacity="1"
     objecttolerance="10"
     gridtolerance="10"
     guidetolerance="10"
     inkscape:pageopacity="0"
     inkscape:pageshadow="2"
     inkscape:window-width="1920"
     inkscape:window-height="1001"
     id="namedview37"
     showgrid="false"
     fit-margin-top="0"
     fit-margin-left="0"
     fit-margin-right="0"
     fit-margin-bottom="0"
     inkscape:zoom="4.76792"
     inkscape:cx="-43.396665"
     inkscape:cy="9.8405628"
     inkscape:window-x="-9"
     inkscape:window-y="-9"
     inkscape:window-maximized="1"
     inkscape:current-layer="Layer_1" /><g
     id="g4248"
     transform="translate(-17.90286,-28.855563)"
     style="fill:#428bca;fill-opacity:1"><path
       d="m 25.022461,60.371094 c -2.135742,0 -4.27832,-0.229004 -5.485352,-1.891114 -0.802734,-1.104492 -0.871094,-2.532226 -0.920898,-3.575195 l -0.66211,-13.88623 c -0.08691,-1.830078 -0.195312,-4.107422 0.897461,-6.009278 1.077149,-1.873535 3.058594,-2.914062 4.664063,-3.611816 5.773437,-2.506348 12.521484,-3.195801 18.682617,-1.905273 4.003906,0.838378 6.787109,2.472168 8.271484,4.855957 1.66504,2.674316 1.529297,5.984863 1.419922,8.645019 l -0.552734,13.583008 c -0.02637,0.669434 -0.06348,1.587402 -0.574219,2.341797 -0.957031,1.416015 -2.924805,1.419433 -3.870117,1.420898 l -21.870117,0.03223 z M 35.895508,30.343262 c -4.047852,0 -8.122071,0.840332 -11.782227,2.430175 -1.393555,0.605469 -3.103515,1.4917 -3.960937,2.983399 -0.874024,1.520996 -0.777344,3.555664 -0.700196,5.19043 l 0.66211,13.88623 c 0.04297,0.900879 0.09668,2.022949 0.635742,2.764649 0.8125,1.118652 2.53418,1.272949 4.272461,1.272949 l 0,0.75 0.0459,-0.75 21.822266,-0.03223 c 1.099609,-0.002 2.179687,-0.09522 2.629883,-0.760742 0.250976,-0.37207 0.291015,-0.904785 0.318359,-1.562988 l 0.552734,-13.583008 c 0.123047,-3.01416 0.118165,-5.681153 -1.195312,-7.791016 -1.259766,-2.022949 -3.717773,-3.429687 -7.304688,-4.181152 -1.955078,-0.40918 -3.971679,-0.616699 -5.996093,-0.616699 z"
       id="path9"
       inkscape:connector-curvature="0"
       style="fill:#428bca;fill-opacity:1" /><path
       d="m 43.414062,38.960449 c -0.0029,0 -0.0059,0 -0.0088,0 L 26.740234,38.762207 c -0.414062,-0.0049 -0.746093,-0.344727 -0.741211,-0.758789 0.0049,-0.411133 0.339844,-0.741211 0.75,-0.741211 0.0029,0 0.0059,0 0.0088,0 l 16.665039,0.198242 c 0.414062,0.0049 0.746093,0.344727 0.741211,0.758789 -0.0049,0.411133 -0.339844,0.741211 -0.750001,0.741211 z"
       id="path11"
       inkscape:connector-curvature="0"
       style="fill:#428bca;fill-opacity:1" /><path
       d="m 40.933594,41.999512 c -0.405274,0 -0.738282,-0.322266 -0.75,-0.729004 l -0.07031,-2.500489 c -0.01172,-0.414062 0.314453,-0.759277 0.728516,-0.770507 0.450195,-0.03223 0.759765,0.314941 0.771484,0.728515 l 0.07031,2.500489 c 0.01172,0.414062 -0.314453,0.759277 -0.728516,0.770507 -0.0078,4.89e-4 -0.01465,4.89e-4 -0.02148,4.89e-4 z"
       id="path13"
       inkscape:connector-curvature="0"
       style="fill:#428bca;fill-opacity:1" /><path
       d="m 22.095703,59.626465 c -0.194336,0 -0.387695,-0.07471 -0.53418,-0.223633 -0.291015,-0.29541 -0.287109,-0.770508 0.0078,-1.061035 0.859375,-0.845215 1.595703,-1.803711 2.189453,-2.847656 0.205078,-0.359375 0.663086,-0.486817 1.023438,-0.28125 0.359375,0.204589 0.485351,0.662597 0.28125,1.02246 -0.663086,1.164551 -1.484375,2.232911 -2.441407,3.175782 -0.146484,0.143554 -0.335937,0.215332 -0.526367,0.215332 z"
       id="path25"
       inkscape:connector-curvature="0"
       style="fill:#428bca;fill-opacity:1" /><path
       d="m 26.488281,60.112793 c -0.197265,0 -0.393554,-0.07715 -0.541015,-0.229981 -0.28711,-0.298828 -0.277344,-0.773437 0.02148,-1.060546 0.776367,-0.747071 1.416016,-1.664063 1.850586,-2.652832 0.166016,-0.379883 0.609375,-0.550782 0.988281,-0.384766 0.378907,0.166504 0.551758,0.608887 0.384766,0.988281 -0.511719,1.166016 -1.267578,2.249024 -2.18457,3.130371 -0.145508,0.140137 -0.332032,0.209473 -0.519532,0.209473 z"
       id="path27"
       inkscape:connector-curvature="0"
       style="fill:#428bca;fill-opacity:1" /><path
       d="m 31.02832,60.187012 c -0.18457,0 -0.36914,-0.06738 -0.513672,-0.203614 -0.301757,-0.283691 -0.316406,-0.7583 -0.03223,-1.060058 0.961914,-1.022949 1.83789,-2.138184 2.603515,-3.314942 0.226563,-0.346191 0.691407,-0.446777 1.038086,-0.219238 0.347657,0.226074 0.445313,0.69043 0.219727,1.037598 -0.81543,1.250976 -1.746094,2.436523 -2.769531,3.523926 -0.147461,0.157226 -0.34668,0.236328 -0.545899,0.236328 z"
       id="path29"
       inkscape:connector-curvature="0"
       style="fill:#428bca;fill-opacity:1" /><path
       d="m 35.633789,60.135254 c -0.22168,0 -0.441406,-0.09766 -0.589844,-0.285156 -0.256836,-0.325196 -0.201172,-0.796875 0.124024,-1.053711 0.932617,-0.73584 1.667968,-1.75586 2.071289,-2.872071 0.140625,-0.390625 0.572265,-0.59082 0.959961,-0.451171 0.389648,0.140625 0.59082,0.5708 0.450195,0.95996 -0.503906,1.396485 -1.385742,2.620606 -2.551758,3.541016 -0.137695,0.108398 -0.301758,0.161133 -0.463867,0.161133 z"
       id="path31"
       inkscape:connector-curvature="0"
       style="fill:#428bca;fill-opacity:1" /><path
       d="m 40.989258,59.988769 c -0.196289,0 -0.393555,-0.07715 -0.540039,-0.22998 -0.288086,-0.298828 -0.278321,-0.773438 0.02051,-1.060547 0.776368,-0.74707 1.336915,-1.736816 1.579102,-2.787598 0.0918,-0.403808 0.494141,-0.658691 0.898438,-0.5625 0.404296,0.09277 0.65625,0.495606 0.5625,0.899414 -0.305665,1.331055 -1.016602,2.58545 -2.000977,3.531739 -0.145508,0.140137 -0.332031,0.209472 -0.519531,0.209472 z"
       id="path33"
       inkscape:connector-curvature="0"
       style="fill:#428bca;fill-opacity:1" /><path
       d="m 45.535156,59.98291 c -0.138672,0 -0.280273,-0.03857 -0.40625,-0.120117 -0.347656,-0.224609 -0.447265,-0.688477 -0.222656,-1.036621 0.560547,-0.868164 1.025391,-1.79834 1.380859,-2.764649 0.144532,-0.388183 0.574219,-0.586914 0.963868,-0.444335 0.388671,0.143066 0.586914,0.574218 0.444335,0.96289 -0.394531,1.069824 -0.909179,2.099121 -1.529296,3.05957 -0.143555,0.222168 -0.384766,0.343262 -0.63086,0.343262 z"
       id="path35"
       inkscape:connector-curvature="0"
       style="fill:#428bca;fill-opacity:1" /></g></svg>