<?xml version="1.0" encoding="UTF-8" standalone="no"?>
<svg
   xmlns:dc="http://purl.org/dc/elements/1.1/"
   xmlns:cc="http://creativecommons.org/ns#"
   xmlns:rdf="http://www.w3.org/1999/02/22-rdf-syntax-ns#"
   xmlns:svg="http://www.w3.org/2000/svg"
   xmlns="http://www.w3.org/2000/svg"
   xmlns:sodipodi="http://sodipodi.sourceforge.net/DTD/sodipodi-0.dtd"
   xmlns:inkscape="http://www.inkscape.org/namespaces/inkscape"
   enable-background="new 0 0 70 70"
   id="Layer_1"
   version="1.1"
   viewBox="0 0 98.993065 44.361881"
   xml:space="preserve"
   inkscape:version="0.91 r13725"
   sodipodi:docname="maletero2.svg"
   width="98.993065"
   height="44.361881"><metadata
     id="metadata85"><rdf:RDF><cc:Work
         rdf:about=""><dc:format>image/svg+xml</dc:format><dc:type
           rdf:resource="http://purl.org/dc/dcmitype/StillImage" /><dc:title></dc:title></cc:Work></rdf:RDF></metadata><defs
     id="defs83" /><sodipodi:namedview
     pagecolor="#ffffff"
     bordercolor="#666666"
     borderopacity="1"
     objecttolerance="10"
     gridtolerance="10"
     guidetolerance="10"
     inkscape:pageopacity="0"
     inkscape:pageshadow="2"
     inkscape:window-width="1920"
     inkscape:window-height="1001"
     id="namedview81"
     showgrid="false"
     fit-margin-top="0"
     fit-margin-left="0"
     fit-margin-right="0"
     fit-margin-bottom="0"
     inkscape:zoom="3.3714286"
     inkscape:cx="-30.214952"
     inkscape:cy="32.390778"
     inkscape:window-x="-9"
     inkscape:window-y="-9"
     inkscape:window-maximized="1"
     inkscape:current-layer="Layer_1" /><path
     style="fill:#428bca;fill-opacity:1"
     inkscape:connector-curvature="0"
     id="path33"
     d="m 46.146605,44.361876 c -2.352455,0 -4.000691,-0.02093 -4.056845,-0.02195 -5.616296,-0.106177 -5.956264,-0.385912 -6.31672,-0.681983 -1.451692,-1.19398 -0.738132,-6.862965 -0.498328,-8.022234 0.08803,-0.429302 0.391686,-0.840108 1.029125,-0.778342 0.638199,0.05921 0.879166,0.09904 0.790381,0.527822 -0.475805,2.307307 0.02353,5.057838 0.528161,7.183419 3.228934,0.453294 19.363721,0.460359 22.360445,-0.07155 0.243651,-0.122362 2.225452,0.394846 1.567519,-6.252442 -0.04249,-0.431855 0.32176,-0.709589 0.963689,-0.738685 0.623021,-0.02756 0.749283,0.407235 0.792538,0.840109 0.865699,12.374136 -0.755939,2.482333 -0.258715,7.040333 -1.158015,0.849925 -11.140769,0.9755 -16.90125,0.975507 z"
     sodipodi:nodetypes="scccccccccccs" /><path
     style="fill:#428bca;fill-opacity:1"
     inkscape:connector-curvature="0"
     id="path35"
     d="m 30.78599,14.899967 c -15.049638,0 -27.1465673,-0.136805 -28.6733862,-0.504851 -0.6063262,-0.145993 -0.9212515,-0.595202 -0.7042187,-1.002555 0.2162741,-0.40531 0.8795145,-0.617153 1.4790111,-0.476264 3.3898111,0.646759 87.4468088,0.353753 92.7967448,-0.323637 0.635922,-0.08321 1.24225,0.200103 1.360631,0.625321 0.119141,0.42573 -0.296713,0.835632 -0.9296,0.915265 -2.649168,0.335888 -38.629581,0.766721 -65.329182,0.766721 z" /><path
     style="fill:#428bca;fill-opacity:1"
     inkscape:connector-curvature="0"
     id="path43"
     d="m 74.074949,44.05779 c -5.842434,0 -10.859233,-0.258296 -12.011177,-0.927517 -0.487187,-0.282799 -0.541065,-0.77795 -0.119898,-1.10567 0.420406,-0.327208 1.157256,-0.363962 1.643682,-0.08064 2.001863,0.838696 26.880968,0.699849 31.115388,-0.549773 2.876066,-1.389488 2.04208,-24.448262 0.691317,-28.445722 C 94.47604,10.23023 86.721288,2.921887 85.18764,2.3542481 83.568999,1.801415 69.319195,1.7764015 64.023895,2.0244887 63.369762,2.0648177 62.824144,1.7294384 62.78013,1.2965631 62.735358,0.86470954 63.219508,0.4905377 63.862259,0.46042023 67.017584,0.31238484 83.808797,0.05459825 86.310747,0.98007426 88.778548,1.8932976 96.682794,9.6855635 97.66779,12.601346 c 0.703461,2.082702 3.48467,28.602946 -2.028421,30.22929 -2.191579,0.646252 -12.804184,1.226652 -21.564421,1.227162 z" /><path
     style="fill:#428bca;fill-opacity:1"
     inkscape:connector-curvature="0"
     id="path45"
     d="m 14.769568,44.067998 c -5.8196686,0 -10.4729756,-0.290964 -11.4450705,-1.156204 C 0.98797876,40.832666 -0.58588925,15.159794 0.20787449,12.980614 1.0691764,10.614604 6.6869897,2.2097801 12.827655,0.85653398 17.251029,-0.11896666 25.637909,-0.028613 31.761121,0.03723545 c 1.956331,0.02042312 30.965673,0.44811132 32.206402,0.42820667 0.592668,-0.0280802 -0.656488,0.37083779 -0.639792,0.80422398 0.01593,0.4328754 1.134817,0.7476284 0.491306,0.758858 C 62.547195,2.0509782 33.725041,1.6278464 31.723937,1.6053898 25.766914,1.5410677 17.60769,1.4548024 13.553122,2.3470969 8.6744347,3.4221397 3.2895902,11.108738 2.472302,13.353257 1.7020627,15.468118 3.4906871,40.133329 5.1950785,41.977132 6.7833648,42.80766 22.096326,42.539666 35.336093,41.788259 c 0.63668,-0.03011 1.205823,0.283309 1.259702,0.715674 0.05388,0.431343 -0.422684,0.81062 -1.063918,0.847374 -5.938051,0.336907 -14.111693,0.716694 -20.762309,0.716691 z"
     sodipodi:nodetypes="sccccccccccccccs" /></svg>