<?xml version="1.0" encoding="UTF-8" standalone="no"?>
<svg
   xmlns:dc="http://purl.org/dc/elements/1.1/"
   xmlns:cc="http://creativecommons.org/ns#"
   xmlns:rdf="http://www.w3.org/1999/02/22-rdf-syntax-ns#"
   xmlns:svg="http://www.w3.org/2000/svg"
   xmlns="http://www.w3.org/2000/svg"
   xmlns:sodipodi="http://sodipodi.sourceforge.net/DTD/sodipodi-0.dtd"
   xmlns:inkscape="http://www.inkscape.org/namespaces/inkscape"
   enable-background="new 0 0 70 70"
   id="Layer_1"
   version="1.1"
   viewBox="0 0 53.064415 82.008904"
   xml:space="preserve"
   inkscape:version="0.91 r13725"
   sodipodi:docname="maleta.svg"
   width="53.064415"
   height="82.008904"><metadata
     id="metadata41"><rdf:RDF><cc:Work
         rdf:about=""><dc:format>image/svg+xml</dc:format><dc:type
           rdf:resource="http://purl.org/dc/dcmitype/StillImage" /><dc:title /></cc:Work></rdf:RDF></metadata><defs
     id="defs39" /><sodipodi:namedview
     pagecolor="#ffffff"
     bordercolor="#666666"
     borderopacity="1"
     objecttolerance="10"
     gridtolerance="10"
     guidetolerance="10"
     inkscape:pageopacity="0"
     inkscape:pageshadow="2"
     inkscape:window-width="1920"
     inkscape:window-height="1001"
     id="namedview37"
     showgrid="false"
     fit-margin-top="0"
     fit-margin-left="0"
     fit-margin-right="0"
     fit-margin-bottom="0"
     inkscape:zoom="2.38396"
     inkscape:cx="-28.528114"
     inkscape:cy="101.08891"
     inkscape:window-x="-9"
     inkscape:window-y="-9"
     inkscape:window-maximized="1"
     inkscape:current-layer="Layer_1" /><path
     style="fill:#428bca;fill-opacity:1"
     inkscape:connector-curvature="0"
     id="path5"
     d="m 23.766472,78.682129 c -3.441462,0 -6.92775,-0.101127 -10.361369,-0.300202 C 10.187767,78.194937 6.8381968,77.81205 4.3425478,75.409792 1.4087328,72.58458 0.72290483,68.02557 0.41809283,63.519347 c -0.607382,-9.008625 -0.552472,-18.139368 0.161371,-27.139725 0.33507,-4.214287 0.86624897,-9.147279 2.27488397,-13.78134 1.508371,-4.963522 3.89532,-9.049968 6.900855,-11.817939 4.0970332,-3.7741591 9.6878692,-5.6084482 17.0918882,-5.6084482 1.228214,0 2.487804,0.048338 3.851615,0.1475573 4.314434,0.3141948 9.241856,1.0723338 13.087867,4.3090538 5.487738,4.6187971 7.181014,12.8304861 8.043901,19.4680211 1.661898,12.787872 1.645087,25.753831 -0.05043,38.536616 -0.341792,2.583524 -0.859525,5.50414 -2.686156,7.461819 -1.831113,1.963401 -4.391759,2.376817 -6.858271,2.632498 -6.113051,0.633478 -12.326958,0.954669 -18.469145,0.954669 z M 26.847091,7.1257569 c -6.992747,0 -12.228343,1.69182 -16.007115,5.1721361 -2.7567562,2.537095 -4.9554382,6.319521 -6.3584692,10.937684 -1.348122,4.436257 -1.862492,9.222329 -2.187475,13.319587 -0.705998,8.892234 -0.759789,17.914216 -0.15913,26.815354 0.275675,4.083266 0.86849,8.187521 3.321555,10.549709 2.084377,2.007288 5.1134462,2.340564 8.0360562,2.510383 9.483913,0.551431 19.130318,0.331367 28.586216,-0.64938 2.166182,-0.223881 4.401844,-0.571148 5.834013,-2.107142 1.427686,-1.529637 1.852406,-3.966876 2.166183,-6.331607 C 51.747546,54.750504 51.764357,41.97853 50.127115,29.381463 49.313535,23.117275 47.741288,15.388964 42.762317,11.198211 39.274908,8.2636009 34.651179,7.5652479 30.588886,7.2694969 c -1.326828,-0.09668 -2.55056,-0.14374 -3.741793,-0.14374 z" /><g
     id="g4193"
     transform="translate(-13.859522,-3.2379887)"
     style="fill:#428bca;fill-opacity:1"><path
       d="m 29.146794,76.684653 c -2.349723,0 -4.706967,-0.277812 -6.034932,-2.294166 -0.88316,-1.339891 -0.958369,-3.071918 -1.013163,-4.337173 l -0.728447,-16.84579 c -0.09562,-2.220121 -0.21488,-4.982833 0.987378,-7.29003 1.185069,-2.272839 3.365036,-3.535133 5.131357,-4.381598 6.351881,-3.040524 13.776017,-3.87692 20.554437,-2.311342 4.405059,1.01706 7.467112,2.999058 9.100208,5.890902 1.831861,3.24429 1.682518,7.260411 1.562184,10.487524 l -0.608112,16.477942 c -0.02901,0.81211 -0.06984,1.925723 -0.631751,2.840902 -1.052916,1.717809 -3.217842,1.721955 -4.257865,1.723733 l -24.061294,0.0391 z M 41.109216,40.257016 c -4.453408,0 -8.935825,1.019431 -12.962693,2.948115 -1.533176,0.734513 -3.414458,1.809625 -4.357785,3.619248 -0.961593,1.845166 -0.855227,4.31348 -0.770349,6.296663 l 0.728447,16.845789 c 0.04728,1.092883 0.106366,2.454098 0.699437,3.353876 0.893905,1.35707 2.788081,1.544252 4.700521,1.544252 l 0,0.909847 0.0505,-0.909847 24.008648,-0.0391 c 1.209779,-0.0024 2.398071,-0.115514 2.893372,-0.922879 0.276122,-0.451369 0.320172,-1.097621 0.350256,-1.896106 l 0.608112,-16.477942 c 0.135376,-3.656565 0.130004,-6.891972 -1.31507,-9.451508 -1.385983,-2.454099 -4.090259,-4.160653 -8.036548,-5.072278 -2.150958,-0.496388 -4.369604,-0.748135 -6.596844,-0.748135 z"
       id="path9"
       inkscape:connector-curvature="0"
       style="fill:#428bca;fill-opacity:1" /><path
       d="m 49.381058,49.569544 c -0.0032,0 -0.0065,0 -0.0097,0 L 31.036671,49.35144 c -0.455547,-0.0054 -0.820844,-0.379265 -0.815473,-0.834813 0.0054,-0.452324 0.373893,-0.815473 0.825143,-0.815473 0.0032,0 0.0065,0 0.0097,0 l 18.334716,0.218104 c 0.455547,0.0054 0.820845,0.379266 0.815473,0.834813 -0.0054,0.452324 -0.373893,0.815473 -0.825143,0.815473 z"
       id="path11"
       inkscape:connector-curvature="0"
       style="fill:#428bca;fill-opacity:1" /><path
       d="m 46.65207,52.913092 c -0.445878,0 -0.81225,-0.354554 -0.825142,-0.802043 l -0.07736,-2.751014 c -0.01289,-0.455547 0.345958,-0.83535 0.801506,-0.847705 0.495301,-0.03546 0.835887,0.346495 0.84878,0.801505 l 0.07735,2.751014 c 0.01289,0.455548 -0.345958,0.83535 -0.801506,0.847705 -0.0086,5.38e-4 -0.01612,5.38e-4 -0.02363,5.38e-4 z"
       id="path13"
       inkscape:connector-curvature="0"
       style="fill:#428bca;fill-opacity:1" /></g><path
     style="fill:#428bca;fill-opacity:1"
     inkscape:connector-curvature="0"
     id="path19"
     d="m 16.437585,7.0205279 c -0.329102,0 -0.629883,-0.217285 -0.722657,-0.548828 -0.663086,-2.3823246 0.973633,-4.7988286 2.939453,-5.75878964 1.716797,-0.838867 3.916993,-0.939453 6.367188,-0.291016 1.640625,0.435059 2.865234,1.06787204 3.744141,1.93457104 1.242187,1.226562 1.670898,2.5532225 1.273437,3.9433596 -0.113281,0.396972 -0.520508,0.630859 -0.926758,0.515136 -0.398437,-0.113769 -0.628906,-0.528808 -0.514648,-0.927246 0.151367,-0.5322264 0.225586,-1.3671873 -0.885742,-2.4633786 -0.697266,-0.6875 -1.674805,-1.180664 -3.075196,-1.552246 -1.45996,-0.387207 -3.570312,-0.667969 -5.324218,0.188476 -1.383789,0.67627 -2.59961,2.4008793 -2.152344,4.0087896 0.111328,0.398926 -0.12207,0.8125 -0.521485,0.923828 -0.06738,0.01855 -0.134765,0.02734 -0.201171,0.02734 z" /><g
     id="g4185"
     transform="translate(-10.151895,13.668791)" /><path
     style="fill:#428bca;fill-opacity:1"
     inkscape:connector-curvature="0"
     id="path19-5"
     d="m 19.0482,77.126001 c 0.237931,0.01193 0.44751,0.179927 0.502562,0.422987 0.39302,1.746395 -0.877894,3.434119 -2.333931,4.056872 -1.271609,0.544234 -2.865936,0.537185 -4.613849,-0.02045 -1.170352,-0.374017 -2.032768,-0.875922 -2.6367702,-1.534387 -0.853596,-0.931806 -1.115443,-1.906488 -0.77769,-2.897107 0.09629,-0.282893 0.399185,-0.437223 0.688697,-0.338829 0.2839342,0.0967 0.4355092,0.405114 0.3384582,0.689032 -0.12873,0.379297 -0.212661,0.980258 0.551055,1.813067 0.479178,0.522322 1.168031,0.914308 2.167003,1.233723 1.041471,0.332872 2.557018,0.612367 3.856094,0.05677 1.024959,-0.438754 1.96649,-1.641518 1.701425,-2.820208 -0.06603,-0.292449 0.117711,-0.582989 0.410513,-0.648995 0.04938,-0.01097 0.09842,-0.01488 0.146433,-0.01247 z" /><path
     style="fill:#428bca;fill-opacity:1"
     inkscape:connector-curvature="0"
     id="path19-5-8"
     d="m 43.152626,75.911159 c 0.233644,-0.04652 0.477894,0.06523 0.590618,0.287499 0.807472,1.597608 -0.01297,3.544532 -1.272918,4.503901 -1.100272,0.838202 -2.64808,1.220585 -4.479241,1.106536 -1.226249,-0.07699 -2.185099,-0.353165 -2.931576,-0.844253 -1.055248,-0.695226 -1.547119,-1.576494 -1.461423,-2.619594 0.02432,-0.297841 0.280369,-0.521446 0.585142,-0.496707 0.29895,0.02446 0.521231,0.286536 0.496429,0.585557 -0.03224,0.399247 0.03308,1.002515 0.977001,1.623681 0.592193,0.389538 1.355898,0.601496 2.402622,0.66737 1.091223,0.06855 2.629147,-0.0304 3.75328,-0.886327 0.886835,-0.675699 1.506251,-2.071925 0.961455,-3.150242 -0.135427,-0.26748 -0.02817,-0.594086 0.239655,-0.729576 0.04521,-0.02269 0.09181,-0.03846 0.138957,-0.04784 z" /></svg>