<?xml version="1.0" encoding="UTF-8" standalone="no"?>
<svg
   xmlns:dc="http://purl.org/dc/elements/1.1/"
   xmlns:cc="http://creativecommons.org/ns#"
   xmlns:rdf="http://www.w3.org/1999/02/22-rdf-syntax-ns#"
   xmlns:svg="http://www.w3.org/2000/svg"
   xmlns="http://www.w3.org/2000/svg"
   xmlns:sodipodi="http://sodipodi.sourceforge.net/DTD/sodipodi-0.dtd"
   xmlns:inkscape="http://www.inkscape.org/namespaces/inkscape"
   enable-background="new 0 0 70 70"
   id="Layer_1"
   version="1.1"
   viewBox="0 0 56.042267 61.606464"
   xml:space="preserve"
   inkscape:version="0.91 r13725"
   sodipodi:docname="mochila.svg"
   width="56.042267"
   height="61.606464"><metadata
     id="metadata41"><rdf:RDF><cc:Work
         rdf:about=""><dc:format>image/svg+xml</dc:format><dc:type
           rdf:resource="http://purl.org/dc/dcmitype/StillImage" /><dc:title></dc:title></cc:Work></rdf:RDF></metadata><defs
     id="defs39" /><sodipodi:namedview
     pagecolor="#ffffff"
     bordercolor="#666666"
     borderopacity="1"
     objecttolerance="10"
     gridtolerance="10"
     guidetolerance="10"
     inkscape:pageopacity="0"
     inkscape:pageshadow="2"
     inkscape:window-width="1920"
     inkscape:window-height="1001"
     id="namedview37"
     showgrid="false"
     fit-margin-top="0"
     fit-margin-left="0"
     fit-margin-right="0"
     fit-margin-bottom="0"
     inkscape:zoom="4.76792"
     inkscape:cx="97.349292"
     inkscape:cy="16.570993"
     inkscape:window-x="-9"
     inkscape:window-y="-9"
     inkscape:window-maximized="1"
     inkscape:current-layer="Layer_1" /><g
     id="g3"
     style="fill:#428bca;fill-opacity:1"
     transform="translate(-7.281765,-4.5727342)"><path
       d="m 32.642578,66.179199 c -2.999023,0 -6.037109,-0.07764 -9.029297,-0.230469 -2.803711,-0.143554 -5.722656,-0.4375 -7.897461,-2.281738 -2.55664,-2.168945 -3.154297,-5.668945 -3.419922,-9.128418 -0.529296,-6.916015 -0.481445,-13.925781 0.140625,-20.835449 0.291993,-3.235352 0.754883,-7.022461 1.982422,-10.580078 1.314453,-3.810547 3.394532,-6.947754 6.013672,-9.072754 3.570313,-2.897461 8.442383,-4.3056641 14.894531,-4.3056641 1.070313,0 2.167969,0.037109 3.356446,0.1132813 3.759765,0.2412108 8.053711,0.8232418 11.405273,3.3081058 4.782227,3.545898 6.257813,9.850097 7.009766,14.945801 1.448242,9.817382 1.433593,19.771484 -0.04395,29.58496 -0.297851,1.983399 -0.749023,4.225586 -2.34082,5.728516 -1.595703,1.507324 -3.827148,1.824707 -5.976562,2.020996 -5.327149,0.486328 -10.742188,0.73291 -16.094727,0.73291 z m 2.68457,-54.93457 c -6.09375,0 -10.65625,1.298828 -13.949218,3.970703 -2.402344,1.947754 -4.31836,4.851562 -5.541016,8.396973 -1.174805,3.405761 -1.623047,7.080078 -1.90625,10.225586 -0.615234,6.82666 -0.662109,13.752929 -0.138672,20.586425 0.240234,3.134766 0.756836,6.285645 2.894531,8.099121 1.816407,1.541016 4.456055,1.796875 7.00293,1.927247 8.264648,0.423339 16.670898,0.254394 24.911133,-0.498536 1.887695,-0.171875 3.835937,-0.438476 5.083984,-1.617675 1.244141,-1.174317 1.614258,-3.045411 1.887696,-4.86084 1.454101,-9.666992 1.46875,-19.472168 0.04199,-29.143067 -0.708985,-4.809082 -2.079102,-10.742187 -6.417969,-13.959472 -3.039063,-2.25293 -7.068359,-2.789063 -10.608398,-3.016114 -1.15625,-0.07422 -2.222657,-0.110351 -3.260743,-0.110351 z"
       id="path5"
       style="fill:#428bca;fill-opacity:1"
       inkscape:connector-curvature="0" /><path
       d="m 50.580078,27.342773 c -0.404297,0 -0.737305,-0.3208 -0.75,-0.726562 -0.125977,-4.056152 -2.814453,-8.013672 -6.539062,-9.624512 -2.425782,-1.049804 -5.151368,-1.173828 -7.497071,-1.164551 -4.376953,0.0249 -7.482422,0.631836 -10.070312,1.967286 -3.208985,1.656738 -5.410156,4.669921 -5.609375,7.675781 -0.02637,0.413086 -0.37207,0.725098 -0.797852,0.699219 -0.413086,-0.02734 -0.725586,-0.384766 -0.698242,-0.797852 0.235352,-3.57373 2.695313,-6.987793 6.417969,-8.910156 2.807617,-1.449219 6.123047,-2.10791 10.75,-2.134278 2.513672,-0.01269 5.419922,0.12793 8.100586,1.287598 4.30664,1.862793 7.297851,6.265137 7.443359,10.95459 0.0127,0.414062 -0.3125,0.760254 -0.726562,0.772949 -0.0078,4.88e-4 -0.01563,4.88e-4 -0.02344,4.88e-4 z"
       id="path7"
       style="fill:#428bca;fill-opacity:1"
       inkscape:connector-curvature="0" /><path
       d="m 25.022461,60.371094 c -2.135742,0 -4.27832,-0.229004 -5.485352,-1.891114 -0.802734,-1.104492 -0.871094,-2.532226 -0.920898,-3.575195 l -0.66211,-13.88623 c -0.08691,-1.830078 -0.195312,-4.107422 0.897461,-6.009278 1.077149,-1.873535 3.058594,-2.914062 4.664063,-3.611816 5.773437,-2.506348 12.521484,-3.195801 18.682617,-1.905273 4.003906,0.838378 6.787109,2.472168 8.271484,4.855957 1.66504,2.674316 1.529297,5.984863 1.419922,8.645019 l -0.552734,13.583008 c -0.02637,0.669434 -0.06348,1.587402 -0.574219,2.341797 -0.957031,1.416015 -2.924805,1.419433 -3.870117,1.420898 l -21.870117,0.03223 z M 35.895508,30.343262 c -4.047852,0 -8.122071,0.840332 -11.782227,2.430175 -1.393555,0.605469 -3.103515,1.4917 -3.960937,2.983399 -0.874024,1.520996 -0.777344,3.555664 -0.700196,5.19043 l 0.66211,13.88623 c 0.04297,0.900879 0.09668,2.022949 0.635742,2.764649 0.8125,1.118652 2.53418,1.272949 4.272461,1.272949 l 0,0.75 0.0459,-0.75 21.822266,-0.03223 c 1.099609,-0.002 2.179687,-0.09522 2.629883,-0.760742 0.250976,-0.37207 0.291015,-0.904785 0.318359,-1.562988 l 0.552734,-13.583008 c 0.123047,-3.01416 0.118165,-5.681153 -1.195312,-7.791016 -1.259766,-2.022949 -3.717773,-3.429687 -7.304688,-4.181152 -1.955078,-0.40918 -3.971679,-0.616699 -5.996093,-0.616699 z"
       id="path9"
       style="fill:#428bca;fill-opacity:1"
       inkscape:connector-curvature="0" /><path
       d="m 43.414062,38.960449 c -0.0029,0 -0.0059,0 -0.0088,0 L 26.740234,38.762207 c -0.414062,-0.0049 -0.746093,-0.344727 -0.741211,-0.758789 0.0049,-0.411133 0.339844,-0.741211 0.75,-0.741211 0.0029,0 0.0059,0 0.0088,0 l 16.665039,0.198242 c 0.414062,0.0049 0.746093,0.344727 0.741211,0.758789 -0.0049,0.411133 -0.339844,0.741211 -0.750001,0.741211 z"
       id="path11"
       style="fill:#428bca;fill-opacity:1"
       inkscape:connector-curvature="0" /><path
       d="m 40.933594,41.999512 c -0.405274,0 -0.738282,-0.322266 -0.75,-0.729004 l -0.07031,-2.500489 c -0.01172,-0.414062 0.314453,-0.759277 0.728516,-0.770507 0.450195,-0.03223 0.759765,0.314941 0.771484,0.728515 l 0.07031,2.500489 c 0.01172,0.414062 -0.314453,0.759277 -0.728516,0.770507 -0.0078,4.89e-4 -0.01465,4.89e-4 -0.02148,4.89e-4 z"
       id="path13"
       style="fill:#428bca;fill-opacity:1"
       inkscape:connector-curvature="0" /><path
       d="m 58.412109,57.960449 c -0.667968,0 -1.323242,-0.07422 -1.96289,-0.146484 -0.41211,-0.04639 -0.708008,-0.417481 -0.661133,-0.829102 0.0459,-0.412598 0.422852,-0.710937 0.829102,-0.661133 0.875976,0.09863 1.782226,0.199707 2.62207,0.08301 0.857422,-0.119629 1.557617,-0.46875 1.97168,-0.98291 0.683593,-0.847656 0.658203,-2.135254 0.568359,-3.492188 l -0.269531,-4.051269 c -0.09473,-1.422363 -0.19336,-2.893555 -0.814453,-4.129395 -0.50293,-1 -1.605469,-2.016113 -2.845704,-1.906738 -0.405273,0.03711 -0.77832,-0.26416 -0.817382,-0.676269 -0.03809,-0.41211 0.264648,-0.778321 0.676757,-0.816895 1.956055,-0.179687 3.577149,1.236817 4.326172,2.726074 0.757813,1.506836 0.871094,3.205078 0.970703,4.703614 l 0.269532,4.051269 c 0.106445,1.598633 0.125976,3.265137 -0.896485,4.533203 -0.654297,0.8125 -1.696289,1.354493 -2.93164,1.526856 -0.348633,0.04883 -0.69336,0.06836 -1.035157,0.06836 z"
       id="path15"
       style="fill:#428bca;fill-opacity:1"
       inkscape:connector-curvature="0" /><path
       d="m 11.773438,58.043457 c -0.170899,0 -0.34375,-0.01416 -0.518555,-0.04297 C 10.261719,57.838867 9.3144531,57.24414 8.7207031,56.410644 7.7724609,55.075195 7.6191406,53.398926 7.4960937,52.052246 7.2998046,49.890137 7.0966796,47.655273 7.5830078,45.439941 c 0.5605469,-2.55664 2.0683594,-4.626953 4.0322262,-5.538086 0.369141,-0.174804 0.820313,-0.0127 0.996094,0.364746 0.173828,0.375489 0.01074,0.82129 -0.365234,0.995606 -1.541016,0.715332 -2.7373049,2.397461 -3.1982424,4.499023 -0.4365234,1.989258 -0.2441406,4.106934 -0.057617,6.154786 0.1123047,1.228027 0.2392578,2.620117 0.953125,3.625 0.3544924,0.499023 0.9648434,0.8833 1.5527344,0.979492 0.279297,0.04687 0.688476,0.04736 1.037109,-0.207031 0.336914,-0.246094 0.805664,-0.169434 1.047852,0.165039 0.24414,0.334961 0.169922,0.804199 -0.165039,1.047851 -0.466797,0.339844 -1.03711,0.51709 -1.642578,0.51709 z"
       id="path17"
       style="fill:#428bca;fill-opacity:1"
       inkscape:connector-curvature="0" /><path
       d="m 28.369141,11.593262 c -0.329102,0 -0.629883,-0.217285 -0.722657,-0.548828 -0.663086,-2.3823246 0.973633,-4.7988285 2.939453,-5.7587895 1.716797,-0.8388672 3.916993,-0.9394531 6.367188,-0.2910156 1.640625,0.4350586 2.865234,1.0678711 3.744141,1.9345703 1.242187,1.2265625 1.670898,2.5532227 1.273437,3.9433598 -0.113281,0.396972 -0.520508,0.630859 -0.926758,0.515136 -0.398437,-0.113769 -0.628906,-0.528808 -0.514648,-0.927246 0.151367,-0.5322264 0.225586,-1.3671873 -0.885742,-2.4633787 -0.697266,-0.6875 -1.674805,-1.1806641 -3.075196,-1.5522461 -1.45996,-0.387207 -3.570312,-0.6679688 -5.324218,0.1884766 -1.383789,0.6762695 -2.59961,2.4008789 -2.152344,4.0087892 0.111328,0.398926 -0.12207,0.8125 -0.521485,0.923828 -0.06738,0.01855 -0.134765,0.02734 -0.201171,0.02734 z"
       id="path19"
       style="fill:#428bca;fill-opacity:1"
       inkscape:connector-curvature="0" /><path
       d="m 11.060547,54.062988 c -0.30957,0 -0.599609,-0.193359 -0.708008,-0.502441 -0.8164062,-2.335938 -1.033203,-4.861328 -0.626953,-7.303711 0.068359,-0.40918 0.451172,-0.686035 0.863281,-0.616699 0.408203,0.06787 0.684571,0.454101 0.617188,0.862793 -0.365235,2.194824 -0.170899,4.463867 0.5625,6.5625 0.136719,0.391113 -0.06934,0.818848 -0.460938,0.955566 -0.08105,0.02881 -0.165039,0.04199 -0.24707,0.04199 z"
       id="path21"
       style="fill:#428bca;fill-opacity:1"
       inkscape:connector-curvature="0" /><path
       d="m 59.458008,54.421875 c -0.03125,0 -0.0625,-0.002 -0.09473,-0.0059 -0.410156,-0.05127 -0.702148,-0.42627 -0.65039,-0.837403 0.352539,-2.812011 0.323242,-5.659179 -0.08789,-8.462402 -0.05957,-0.410156 0.223633,-0.791016 0.633789,-0.851074 0.402344,-0.05859 0.791016,0.223633 0.850586,0.633301 0.429687,2.9375 0.460937,5.92041 0.0918,8.866699 -0.04785,0.379394 -0.370117,0.656738 -0.743164,0.656738 z"
       id="path23"
       style="fill:#428bca;fill-opacity:1"
       inkscape:connector-curvature="0" /><path
       d="m 22.095703,59.626465 c -0.194336,0 -0.387695,-0.07471 -0.53418,-0.223633 -0.291015,-0.29541 -0.287109,-0.770508 0.0078,-1.061035 0.859375,-0.845215 1.595703,-1.803711 2.189453,-2.847656 0.205078,-0.359375 0.663086,-0.486817 1.023438,-0.28125 0.359375,0.204589 0.485351,0.662597 0.28125,1.02246 -0.663086,1.164551 -1.484375,2.232911 -2.441407,3.175782 -0.146484,0.143554 -0.335937,0.215332 -0.526367,0.215332 z"
       id="path25"
       style="fill:#428bca;fill-opacity:1"
       inkscape:connector-curvature="0" /><path
       d="m 26.488281,60.112793 c -0.197265,0 -0.393554,-0.07715 -0.541015,-0.229981 -0.28711,-0.298828 -0.277344,-0.773437 0.02148,-1.060546 0.776367,-0.747071 1.416016,-1.664063 1.850586,-2.652832 0.166016,-0.379883 0.609375,-0.550782 0.988281,-0.384766 0.378907,0.166504 0.551758,0.608887 0.384766,0.988281 -0.511719,1.166016 -1.267578,2.249024 -2.18457,3.130371 -0.145508,0.140137 -0.332032,0.209473 -0.519532,0.209473 z"
       id="path27"
       style="fill:#428bca;fill-opacity:1"
       inkscape:connector-curvature="0" /><path
       d="m 31.02832,60.187012 c -0.18457,0 -0.36914,-0.06738 -0.513672,-0.203614 -0.301757,-0.283691 -0.316406,-0.7583 -0.03223,-1.060058 0.961914,-1.022949 1.83789,-2.138184 2.603515,-3.314942 0.226563,-0.346191 0.691407,-0.446777 1.038086,-0.219238 0.347657,0.226074 0.445313,0.69043 0.219727,1.037598 -0.81543,1.250976 -1.746094,2.436523 -2.769531,3.523926 -0.147461,0.157226 -0.34668,0.236328 -0.545899,0.236328 z"
       id="path29"
       style="fill:#428bca;fill-opacity:1"
       inkscape:connector-curvature="0" /><path
       d="m 35.633789,60.135254 c -0.22168,0 -0.441406,-0.09766 -0.589844,-0.285156 -0.256836,-0.325196 -0.201172,-0.796875 0.124024,-1.053711 0.932617,-0.73584 1.667968,-1.75586 2.071289,-2.872071 0.140625,-0.390625 0.572265,-0.59082 0.959961,-0.451171 0.389648,0.140625 0.59082,0.5708 0.450195,0.95996 -0.503906,1.396485 -1.385742,2.620606 -2.551758,3.541016 -0.137695,0.108398 -0.301758,0.161133 -0.463867,0.161133 z"
       id="path31"
       style="fill:#428bca;fill-opacity:1"
       inkscape:connector-curvature="0" /><path
       d="m 40.989258,59.988769 c -0.196289,0 -0.393555,-0.07715 -0.540039,-0.22998 -0.288086,-0.298828 -0.278321,-0.773438 0.02051,-1.060547 0.776368,-0.74707 1.336915,-1.736816 1.579102,-2.787598 0.0918,-0.403808 0.494141,-0.658691 0.898438,-0.5625 0.404296,0.09277 0.65625,0.495606 0.5625,0.899414 -0.305665,1.331055 -1.016602,2.58545 -2.000977,3.531739 -0.145508,0.140137 -0.332031,0.209472 -0.519531,0.209472 z"
       id="path33"
       style="fill:#428bca;fill-opacity:1"
       inkscape:connector-curvature="0" /><path
       d="m 45.535156,59.98291 c -0.138672,0 -0.280273,-0.03857 -0.40625,-0.120117 -0.347656,-0.224609 -0.447265,-0.688477 -0.222656,-1.036621 0.560547,-0.868164 1.025391,-1.79834 1.380859,-2.764649 0.144532,-0.388183 0.574219,-0.586914 0.963868,-0.444335 0.388671,0.143066 0.586914,0.574218 0.444335,0.96289 -0.394531,1.069824 -0.909179,2.099121 -1.529296,3.05957 -0.143555,0.222168 -0.384766,0.343262 -0.63086,0.343262 z"
       id="path35"
       style="fill:#428bca;fill-opacity:1"
       inkscape:connector-curvature="0" /></g></svg>